<svg width="413" height="413" viewBox="0 0 413 413" fill="none" xmlns="http://www.w3.org/2000/svg">
<g id="Group 1">
<g id="Ellipse 1">
<mask id="path-1-inside-1_1_15" fill="white">
<path d="M340.361 335.105C319.216 357.801 292.704 374.817 263.262 384.586C233.821 394.355 202.396 396.565 171.877 391.011C141.358 385.457 112.726 372.318 88.6138 352.803C64.5016 333.288 45.6836 308.023 33.8907 279.332C22.0977 250.641 17.7084 219.446 21.1266 188.615C24.5447 157.784 35.6605 128.307 53.4515 102.896C71.2426 77.485 95.1376 56.9556 122.939 43.196C150.74 29.4363 181.555 22.8883 212.549 24.1541L211.491 50.0736C184.843 48.9853 158.349 54.6152 134.446 66.4454C110.543 78.2756 89.9984 95.9264 74.702 117.774C59.4057 139.622 49.8486 164.965 46.9097 191.473C43.9709 217.981 47.7447 244.802 57.884 269.47C68.0233 294.138 84.2026 315.86 104.934 332.638C125.665 349.417 150.282 360.714 176.522 365.489C202.761 370.264 229.78 368.364 255.093 359.965C280.406 351.566 303.201 336.936 321.38 317.422L340.361 335.105Z"/>
</mask>
<path d="M340.361 335.105C319.216 357.801 292.704 374.817 263.262 384.586C233.821 394.355 202.396 396.565 171.877 391.011C141.358 385.457 112.726 372.318 88.6138 352.803C64.5016 333.288 45.6836 308.023 33.8907 279.332C22.0977 250.641 17.7084 219.446 21.1266 188.615C24.5447 157.784 35.6605 128.307 53.4515 102.896C71.2426 77.485 95.1376 56.9556 122.939 43.196C150.74 29.4363 181.555 22.8883 212.549 24.1541L211.491 50.0736C184.843 48.9853 158.349 54.6152 134.446 66.4454C110.543 78.2756 89.9984 95.9264 74.702 117.774C59.4057 139.622 49.8486 164.965 46.9097 191.473C43.9709 217.981 47.7447 244.802 57.884 269.47C68.0233 294.138 84.2026 315.86 104.934 332.638C125.665 349.417 150.282 360.714 176.522 365.489C202.761 370.264 229.78 368.364 255.093 359.965C280.406 351.566 303.201 336.936 321.38 317.422L340.361 335.105Z" stroke="#6B3939" stroke-width="10" mask="url(#path-1-inside-1_1_15)"/>
</g>
<circle id="Ellipse 2" cx="201" cy="132" r="72" fill="#D5C0C0"/>
<path id="Ellipse 3" d="M206.5 352C187.393 352 168.472 348.237 150.82 340.924C133.167 333.612 117.127 322.895 103.616 309.384C90.105 295.873 79.3876 279.833 72.0755 262.18C64.7635 244.528 61 225.607 61 206.5C61 187.393 64.7635 168.472 72.0755 150.82C79.3876 133.167 90.105 117.127 103.616 103.616C117.127 90.105 133.167 79.3876 150.82 72.0755C168.472 64.7635 187.393 61 206.5 61L206.5 206.5L206.5 352Z" fill="#948383"/>
<path id="Ellipse 4" d="M309.384 309.384C295.873 322.895 279.833 333.612 262.18 340.924C244.528 348.237 225.607 352 206.5 352C187.393 352 168.472 348.237 150.82 340.924C133.167 333.612 117.127 322.895 103.616 309.384L206.5 206.5L309.384 309.384Z" fill="#CAABAB"/>
</g>
</svg>
